# xmcd
#
# Track frame offsets:
#       150
#       15150
#       28745
#       42830
#       59002
#       73562
#       84175
#       99035
#       106450
#       120517
#       135192
#       150450
#       162710
#       178817
#
# Disc length: 2557 seconds
#
# Revision: 0
# Processed by: cddbd v1.5.1PL0 Copyright (c) Steve Scherf et al.
# Submitted via: WhereIsIt 3.65
#
DISCID=a509fb0e
DTITLE=Kathy Tugman and Da House Band - Nothing I'll Ever Miss
DYEAR=2002
DGENRE=Bluegrass
TTITLE0=Picking Up the Thread
TTITLE1=Now, I Remember
TTITLE2=Oh Yeah, Oh Yes
TTITLE3=Dreaming of the Statesville Train
TTITLE4=Clear As That Bell
TTITLE5=Roadhouse Shuffle
TTITLE6=Washing Down the West Jefferson Road
TTITLE7=The Wilkes County Waltz
TTITLE8=Bright Wings
TTITLE9=Oh, the Laurel
TTITLE10=The Lyric Writer's Lament
TTITLE11=Blue Ridge
TTITLE12=Lost But Turned Up
TTITLE13=Fergus Smithson's Reel
EXTD=
EXTT0=
EXTT1=
EXTT2=
EXTT3=
EXTT4=
EXTT5=
EXTT6=
EXTT7=
EXTT8=
EXTT9=
EXTT10=
EXTT11=
EXTT12=
EXTT13=
PLAYORDER=
